<svg width="371" height="160" viewBox="0 0 371 160" fill="none" xmlns="http://www.w3.org/2000/svg">
<g clip-path="url(#clip0_2663_19920)">
<path d="M365.672 10C368.433 10 370.672 7.76142 370.672 5C370.672 2.23858 368.433 0 365.672 0C362.91 0 360.672 2.23858 360.672 5C360.672 7.76142 362.91 10 365.672 10Z" fill="#429A86"/>
<path d="M335.672 10C338.433 10 340.672 7.76142 340.672 5C340.672 2.23858 338.433 0 335.672 0C332.91 0 330.672 2.23858 330.672 5C330.672 7.76142 332.91 10 335.672 10Z" fill="#429A86"/>
<path d="M305.672 10C308.433 10 310.672 7.76142 310.672 5C310.672 2.23858 308.433 0 305.672 0C302.91 0 300.672 2.23858 300.672 5C300.672 7.76142 302.91 10 305.672 10Z" fill="#429A86"/>
<path d="M275.672 10C278.433 10 280.672 7.76142 280.672 5C280.672 2.23858 278.433 0 275.672 0C272.91 0 270.672 2.23858 270.672 5C270.672 7.76142 272.91 10 275.672 10Z" fill="#429A86"/>
<path d="M245.672 10C248.433 10 250.672 7.76142 250.672 5C250.672 2.23858 248.433 0 245.672 0C242.91 0 240.672 2.23858 240.672 5C240.672 7.76142 242.91 10 245.672 10Z" fill="#429A86"/>
<path d="M215.672 10C218.433 10 220.672 7.76142 220.672 5C220.672 2.23858 218.433 0 215.672 0C212.91 0 210.672 2.23858 210.672 5C210.672 7.76142 212.91 10 215.672 10Z" fill="#429A86"/>
<path d="M185.672 10C188.433 10 190.672 7.76142 190.672 5C190.672 2.23858 188.433 0 185.672 0C182.91 0 180.672 2.23858 180.672 5C180.672 7.76142 182.91 10 185.672 10Z" fill="#429A86"/>
<path d="M155.672 10C158.433 10 160.672 7.76142 160.672 5C160.672 2.23858 158.433 0 155.672 0C152.91 0 150.672 2.23858 150.672 5C150.672 7.76142 152.91 10 155.672 10Z" fill="#429A86"/>
<path d="M125.672 10C128.433 10 130.672 7.76142 130.672 5C130.672 2.23858 128.433 0 125.672 0C122.91 0 120.672 2.23858 120.672 5C120.672 7.76142 122.91 10 125.672 10Z" fill="#429A86"/>
<path d="M95.6719 10C98.4333 10 100.672 7.76142 100.672 5C100.672 2.23858 98.4333 0 95.6719 0C92.9105 0 90.6719 2.23858 90.6719 5C90.6719 7.76142 92.9105 10 95.6719 10Z" fill="#429A86"/>
<path d="M65.6719 10C68.4333 10 70.6719 7.76142 70.6719 5C70.6719 2.23858 68.4333 0 65.6719 0C62.9105 0 60.6719 2.23858 60.6719 5C60.6719 7.76142 62.9105 10 65.6719 10Z" fill="#429A86"/>
<path d="M35.6719 10C38.4333 10 40.6719 7.76142 40.6719 5C40.6719 2.23858 38.4333 0 35.6719 0C32.9105 0 30.6719 2.23858 30.6719 5C30.6719 7.76142 32.9105 10 35.6719 10Z" fill="#429A86"/>
<path d="M5.67188 10C8.4333 10 10.6719 7.76142 10.6719 5C10.6719 2.23858 8.4333 0 5.67188 0C2.91045 0 0.671875 2.23858 0.671875 5C0.671875 7.76142 2.91045 10 5.67188 10Z" fill="#429A86"/>
<path d="M365.672 40C368.433 40 370.672 37.7614 370.672 35C370.672 32.2386 368.433 30 365.672 30C362.91 30 360.672 32.2386 360.672 35C360.672 37.7614 362.91 40 365.672 40Z" fill="#429A86"/>
<path d="M335.672 40C338.433 40 340.672 37.7614 340.672 35C340.672 32.2386 338.433 30 335.672 30C332.91 30 330.672 32.2386 330.672 35C330.672 37.7614 332.91 40 335.672 40Z" fill="#429A86"/>
<path d="M305.672 40C308.433 40 310.672 37.7614 310.672 35C310.672 32.2386 308.433 30 305.672 30C302.91 30 300.672 32.2386 300.672 35C300.672 37.7614 302.91 40 305.672 40Z" fill="#429A86"/>
<path d="M275.672 40C278.433 40 280.672 37.7614 280.672 35C280.672 32.2386 278.433 30 275.672 30C272.91 30 270.672 32.2386 270.672 35C270.672 37.7614 272.91 40 275.672 40Z" fill="#429A86"/>
<path d="M245.672 40C248.433 40 250.672 37.7614 250.672 35C250.672 32.2386 248.433 30 245.672 30C242.91 30 240.672 32.2386 240.672 35C240.672 37.7614 242.91 40 245.672 40Z" fill="#429A86"/>
<path d="M215.672 40C218.433 40 220.672 37.7614 220.672 35C220.672 32.2386 218.433 30 215.672 30C212.91 30 210.672 32.2386 210.672 35C210.672 37.7614 212.91 40 215.672 40Z" fill="#429A86"/>
<path d="M185.672 40C188.433 40 190.672 37.7614 190.672 35C190.672 32.2386 188.433 30 185.672 30C182.91 30 180.672 32.2386 180.672 35C180.672 37.7614 182.91 40 185.672 40Z" fill="#429A86"/>
<path d="M155.672 40C158.433 40 160.672 37.7614 160.672 35C160.672 32.2386 158.433 30 155.672 30C152.91 30 150.672 32.2386 150.672 35C150.672 37.7614 152.91 40 155.672 40Z" fill="#429A86"/>
<path d="M125.672 40C128.433 40 130.672 37.7614 130.672 35C130.672 32.2386 128.433 30 125.672 30C122.91 30 120.672 32.2386 120.672 35C120.672 37.7614 122.91 40 125.672 40Z" fill="#429A86"/>
<path d="M95.6719 40C98.4333 40 100.672 37.7614 100.672 35C100.672 32.2386 98.4333 30 95.6719 30C92.9105 30 90.6719 32.2386 90.6719 35C90.6719 37.7614 92.9105 40 95.6719 40Z" fill="#429A86"/>
<path d="M65.6719 40C68.4333 40 70.6719 37.7614 70.6719 35C70.6719 32.2386 68.4333 30 65.6719 30C62.9105 30 60.6719 32.2386 60.6719 35C60.6719 37.7614 62.9105 40 65.6719 40Z" fill="#429A86"/>
<path d="M35.6719 40C38.4333 40 40.6719 37.7614 40.6719 35C40.6719 32.2386 38.4333 30 35.6719 30C32.9105 30 30.6719 32.2386 30.6719 35C30.6719 37.7614 32.9105 40 35.6719 40Z" fill="#429A86"/>
<path d="M5.67188 40C8.4333 40 10.6719 37.7614 10.6719 35C10.6719 32.2386 8.4333 30 5.67188 30C2.91045 30 0.671875 32.2386 0.671875 35C0.671875 37.7614 2.91045 40 5.67188 40Z" fill="#429A86"/>
<path d="M365.672 70C368.433 70 370.672 67.7614 370.672 65C370.672 62.2386 368.433 60 365.672 60C362.91 60 360.672 62.2386 360.672 65C360.672 67.7614 362.91 70 365.672 70Z" fill="#2D5C51"/>
<path d="M335.672 70C338.433 70 340.672 67.7614 340.672 65C340.672 62.2386 338.433 60 335.672 60C332.91 60 330.672 62.2386 330.672 65C330.672 67.7614 332.91 70 335.672 70Z" fill="#2D5C51"/>
<path d="M305.672 70C308.433 70 310.672 67.7614 310.672 65C310.672 62.2386 308.433 60 305.672 60C302.91 60 300.672 62.2386 300.672 65C300.672 67.7614 302.91 70 305.672 70Z" fill="#2D5C51"/>
<path d="M275.672 70C278.433 70 280.672 67.7614 280.672 65C280.672 62.2386 278.433 60 275.672 60C272.91 60 270.672 62.2386 270.672 65C270.672 67.7614 272.91 70 275.672 70Z" fill="#2D5C51"/>
<path d="M245.672 70C248.433 70 250.672 67.7614 250.672 65C250.672 62.2386 248.433 60 245.672 60C242.91 60 240.672 62.2386 240.672 65C240.672 67.7614 242.91 70 245.672 70Z" fill="#2D5C51"/>
<path d="M215.672 70C218.433 70 220.672 67.7614 220.672 65C220.672 62.2386 218.433 60 215.672 60C212.91 60 210.672 62.2386 210.672 65C210.672 67.7614 212.91 70 215.672 70Z" fill="#2D5C51"/>
<path d="M185.672 70C188.433 70 190.672 67.7614 190.672 65C190.672 62.2386 188.433 60 185.672 60C182.91 60 180.672 62.2386 180.672 65C180.672 67.7614 182.91 70 185.672 70Z" fill="white"/>
<path d="M155.672 70C158.433 70 160.672 67.7614 160.672 65C160.672 62.2386 158.433 60 155.672 60C152.91 60 150.672 62.2386 150.672 65C150.672 67.7614 152.91 70 155.672 70Z" fill="white"/>
<path d="M125.672 70C128.433 70 130.672 67.7614 130.672 65C130.672 62.2386 128.433 60 125.672 60C122.91 60 120.672 62.2386 120.672 65C120.672 67.7614 122.91 70 125.672 70Z" fill="white"/>
<path d="M95.6719 70C98.4333 70 100.672 67.7614 100.672 65C100.672 62.2386 98.4333 60 95.6719 60C92.9105 60 90.6719 62.2386 90.6719 65C90.6719 67.7614 92.9105 70 95.6719 70Z" fill="white"/>
<path d="M65.6719 70C68.4333 70 70.6719 67.7614 70.6719 65C70.6719 62.2386 68.4333 60 65.6719 60C62.9105 60 60.6719 62.2386 60.6719 65C60.6719 67.7614 62.9105 70 65.6719 70Z" fill="white"/>
<path d="M35.6719 70C38.4333 70 40.6719 67.7614 40.6719 65C40.6719 62.2386 38.4333 60 35.6719 60C32.9105 60 30.6719 62.2386 30.6719 65C30.6719 67.7614 32.9105 70 35.6719 70Z" fill="white"/>
<path d="M5.67188 70C8.4333 70 10.6719 67.7614 10.6719 65C10.6719 62.2386 8.4333 60 5.67188 60C2.91045 60 0.671875 62.2386 0.671875 65C0.671875 67.7614 2.91045 70 5.67188 70Z" fill="white"/>
<path d="M365.672 100C368.433 100 370.672 97.7614 370.672 95C370.672 92.2386 368.433 90 365.672 90C362.91 90 360.672 92.2386 360.672 95C360.672 97.7614 362.91 100 365.672 100Z" fill="#2D5C51"/>
<path d="M335.672 100C338.433 100 340.672 97.7614 340.672 95C340.672 92.2386 338.433 90 335.672 90C332.91 90 330.672 92.2386 330.672 95C330.672 97.7614 332.91 100 335.672 100Z" fill="#2D5C51"/>
<path d="M305.672 100C308.433 100 310.672 97.7614 310.672 95C310.672 92.2386 308.433 90 305.672 90C302.91 90 300.672 92.2386 300.672 95C300.672 97.7614 302.91 100 305.672 100Z" fill="#2D5C51"/>
<path d="M275.672 100C278.433 100 280.672 97.7614 280.672 95C280.672 92.2386 278.433 90 275.672 90C272.91 90 270.672 92.2386 270.672 95C270.672 97.7614 272.91 100 275.672 100Z" fill="#2D5C51"/>
<path d="M245.672 100C248.433 100 250.672 97.7614 250.672 95C250.672 92.2386 248.433 90 245.672 90C242.91 90 240.672 92.2386 240.672 95C240.672 97.7614 242.91 100 245.672 100Z" fill="#2D5C51"/>
<path d="M215.672 100C218.433 100 220.672 97.7614 220.672 95C220.672 92.2386 218.433 90 215.672 90C212.91 90 210.672 92.2386 210.672 95C210.672 97.7614 212.91 100 215.672 100Z" fill="#2D5C51"/>
<path d="M185.672 100C188.433 100 190.672 97.7614 190.672 95C190.672 92.2386 188.433 90 185.672 90C182.91 90 180.672 92.2386 180.672 95C180.672 97.7614 182.91 100 185.672 100Z" fill="white"/>
<path d="M155.672 100C158.433 100 160.672 97.7614 160.672 95C160.672 92.2386 158.433 90 155.672 90C152.91 90 150.672 92.2386 150.672 95C150.672 97.7614 152.91 100 155.672 100Z" fill="white"/>
<path d="M125.672 100C128.433 100 130.672 97.7614 130.672 95C130.672 92.2386 128.433 90 125.672 90C122.91 90 120.672 92.2386 120.672 95C120.672 97.7614 122.91 100 125.672 100Z" fill="white"/>
<path d="M95.6719 100C98.4333 100 100.672 97.7614 100.672 95C100.672 92.2386 98.4333 90 95.6719 90C92.9105 90 90.6719 92.2386 90.6719 95C90.6719 97.7614 92.9105 100 95.6719 100Z" fill="white"/>
<path d="M65.6719 100C68.4333 100 70.6719 97.7614 70.6719 95C70.6719 92.2386 68.4333 90 65.6719 90C62.9105 90 60.6719 92.2386 60.6719 95C60.6719 97.7614 62.9105 100 65.6719 100Z" fill="white"/>
<path d="M35.6719 100C38.4333 100 40.6719 97.7614 40.6719 95C40.6719 92.2386 38.4333 90 35.6719 90C32.9105 90 30.6719 92.2386 30.6719 95C30.6719 97.7614 32.9105 100 35.6719 100Z" fill="white"/>
<path d="M5.67188 100C8.4333 100 10.6719 97.7614 10.6719 95C10.6719 92.2386 8.4333 90 5.67188 90C2.91045 90 0.671875 92.2386 0.671875 95C0.671875 97.7614 2.91045 100 5.67188 100Z" fill="white"/>
<path d="M365.672 130C368.433 130 370.672 127.761 370.672 125C370.672 122.239 368.433 120 365.672 120C362.91 120 360.672 122.239 360.672 125C360.672 127.761 362.91 130 365.672 130Z" fill="#2D5C51"/>
<path d="M335.672 130C338.433 130 340.672 127.761 340.672 125C340.672 122.239 338.433 120 335.672 120C332.91 120 330.672 122.239 330.672 125C330.672 127.761 332.91 130 335.672 130Z" fill="#2D5C51"/>
<path d="M305.672 130C308.433 130 310.672 127.761 310.672 125C310.672 122.239 308.433 120 305.672 120C302.91 120 300.672 122.239 300.672 125C300.672 127.761 302.91 130 305.672 130Z" fill="#2D5C51"/>
<path d="M275.672 130C278.433 130 280.672 127.761 280.672 125C280.672 122.239 278.433 120 275.672 120C272.91 120 270.672 122.239 270.672 125C270.672 127.761 272.91 130 275.672 130Z" fill="#2D5C51"/>
<path d="M245.672 130C248.433 130 250.672 127.761 250.672 125C250.672 122.239 248.433 120 245.672 120C242.91 120 240.672 122.239 240.672 125C240.672 127.761 242.91 130 245.672 130Z" fill="#2D5C51"/>
<path d="M215.672 130C218.433 130 220.672 127.761 220.672 125C220.672 122.239 218.433 120 215.672 120C212.91 120 210.672 122.239 210.672 125C210.672 127.761 212.91 130 215.672 130Z" fill="#2D5C51"/>
<path d="M185.672 130C188.433 130 190.672 127.761 190.672 125C190.672 122.239 188.433 120 185.672 120C182.91 120 180.672 122.239 180.672 125C180.672 127.761 182.91 130 185.672 130Z" fill="#2D5C51"/>
<path d="M155.672 130C158.433 130 160.672 127.761 160.672 125C160.672 122.239 158.433 120 155.672 120C152.91 120 150.672 122.239 150.672 125C150.672 127.761 152.91 130 155.672 130Z" fill="white"/>
<path d="M125.672 130C128.433 130 130.672 127.761 130.672 125C130.672 122.239 128.433 120 125.672 120C122.91 120 120.672 122.239 120.672 125C120.672 127.761 122.91 130 125.672 130Z" fill="white"/>
<path d="M95.6719 130C98.4333 130 100.672 127.761 100.672 125C100.672 122.239 98.4333 120 95.6719 120C92.9105 120 90.6719 122.239 90.6719 125C90.6719 127.761 92.9105 130 95.6719 130Z" fill="white"/>
<path d="M65.6719 130C68.4333 130 70.6719 127.761 70.6719 125C70.6719 122.239 68.4333 120 65.6719 120C62.9105 120 60.6719 122.239 60.6719 125C60.6719 127.761 62.9105 130 65.6719 130Z" fill="white"/>
<path d="M35.6719 130C38.4333 130 40.6719 127.761 40.6719 125C40.6719 122.239 38.4333 120 35.6719 120C32.9105 120 30.6719 122.239 30.6719 125C30.6719 127.761 32.9105 130 35.6719 130Z" fill="white"/>
<path d="M5.67188 130C8.4333 130 10.6719 127.761 10.6719 125C10.6719 122.239 8.4333 120 5.67188 120C2.91045 120 0.671875 122.239 0.671875 125C0.671875 127.761 2.91045 130 5.67188 130Z" fill="white"/>
<path d="M365.672 160C368.433 160 370.672 157.761 370.672 155C370.672 152.239 368.433 150 365.672 150C362.91 150 360.672 152.239 360.672 155C360.672 157.761 362.91 160 365.672 160Z" fill="#2D5C51"/>
<path d="M335.672 160C338.433 160 340.672 157.761 340.672 155C340.672 152.239 338.433 150 335.672 150C332.91 150 330.672 152.239 330.672 155C330.672 157.761 332.91 160 335.672 160Z" fill="#2D5C51"/>
<path d="M305.672 160C308.433 160 310.672 157.761 310.672 155C310.672 152.239 308.433 150 305.672 150C302.91 150 300.672 152.239 300.672 155C300.672 157.761 302.91 160 305.672 160Z" fill="#2D5C51"/>
<path d="M275.672 160C278.433 160 280.672 157.761 280.672 155C280.672 152.239 278.433 150 275.672 150C272.91 150 270.672 152.239 270.672 155C270.672 157.761 272.91 160 275.672 160Z" fill="#2D5C51"/>
<path d="M245.672 160C248.433 160 250.672 157.761 250.672 155C250.672 152.239 248.433 150 245.672 150C242.91 150 240.672 152.239 240.672 155C240.672 157.761 242.91 160 245.672 160Z" fill="#2D5C51"/>
<path d="M215.672 160C218.433 160 220.672 157.761 220.672 155C220.672 152.239 218.433 150 215.672 150C212.91 150 210.672 152.239 210.672 155C210.672 157.761 212.91 160 215.672 160Z" fill="#2D5C51"/>
<path d="M185.672 160C188.433 160 190.672 157.761 190.672 155C190.672 152.239 188.433 150 185.672 150C182.91 150 180.672 152.239 180.672 155C180.672 157.761 182.91 160 185.672 160Z" fill="#2D5C51"/>
<path d="M155.672 160C158.433 160 160.672 157.761 160.672 155C160.672 152.239 158.433 150 155.672 150C152.91 150 150.672 152.239 150.672 155C150.672 157.761 152.91 160 155.672 160Z" fill="#2D5C51"/>
<path d="M125.672 160C128.433 160 130.672 157.761 130.672 155C130.672 152.239 128.433 150 125.672 150C122.91 150 120.672 152.239 120.672 155C120.672 157.761 122.91 160 125.672 160Z" fill="white"/>
<path d="M95.6719 160C98.4333 160 100.672 157.761 100.672 155C100.672 152.239 98.4333 150 95.6719 150C92.9105 150 90.6719 152.239 90.6719 155C90.6719 157.761 92.9105 160 95.6719 160Z" fill="white"/>
<path d="M65.6719 160C68.4333 160 70.6719 157.761 70.6719 155C70.6719 152.239 68.4333 150 65.6719 150C62.9105 150 60.6719 152.239 60.6719 155C60.6719 157.761 62.9105 160 65.6719 160Z" fill="white"/>
<path d="M35.6719 160C38.4333 160 40.6719 157.761 40.6719 155C40.6719 152.239 38.4333 150 35.6719 150C32.9105 150 30.6719 152.239 30.6719 155C30.6719 157.761 32.9105 160 35.6719 160Z" fill="white"/>
<path d="M5.67188 160C8.4333 160 10.6719 157.761 10.6719 155C10.6719 152.239 8.4333 150 5.67188 150C2.91045 150 0.671875 152.239 0.671875 155C0.671875 157.761 2.91045 160 5.67188 160Z" fill="white"/>
</g>
<defs>
<clipPath id="clip0_2663_19920">
<rect width="370" height="160" fill="white" transform="translate(0.671875)"/>
</clipPath>
</defs>
</svg>
