<svg width="27" height="26" viewBox="0 0 27 26" fill="none" xmlns="http://www.w3.org/2000/svg">
<path fill-rule="evenodd" clip-rule="evenodd" d="M11.5451 0H15.7987C19.3776 0 20.8259 0.402244 22.2382 1.15758C23.6506 1.91291 24.759 3.02132 25.5143 4.43367C26.2696 5.84601 26.6719 7.29431 26.6719 10.8732V15.1268C26.6719 18.7057 26.2696 20.154 25.5143 21.5663C24.759 22.9787 23.6506 24.0871 22.2382 24.8424C20.8259 25.5978 19.3776 26 15.7987 26H11.5451C7.96619 26 6.51789 25.5978 5.10554 24.8424C3.6932 24.0871 2.58478 22.9787 1.82945 21.5663C1.07412 20.154 0.671875 18.7057 0.671875 15.1268V10.8732C0.671875 7.29431 1.07412 5.84601 1.82945 4.43367C2.58478 3.02132 3.6932 1.91291 5.10554 1.15758C6.51789 0.402244 7.96619 0 11.5451 0ZM13.6719 19.5C17.2599 19.5 20.1719 16.588 20.1719 13C20.1719 9.412 17.2599 6.5 13.6719 6.5C10.0839 6.5 7.17188 9.412 7.17188 13V19.5H13.6719Z" fill="#366F62"/>
</svg>
