<svg width="36" height="36" viewBox="0 0 36 36" fill="none" xmlns="http://www.w3.org/2000/svg">
<path fill-rule="evenodd" clip-rule="evenodd" d="M15.0552 0H20.9448C25.9002 0 27.9055 0.556954 29.8611 1.6028C31.8166 2.64864 33.3514 4.18337 34.3972 6.13893C35.443 8.09448 36 10.0998 36 15.0552V20.9448C36 25.9002 35.443 27.9055 34.3972 29.8611C33.3514 31.8166 31.8166 33.3514 29.8611 34.3972C27.9055 35.443 25.9002 36 20.9448 36H15.0552C10.0998 36 8.09448 35.443 6.13892 34.3972C4.18337 33.3514 2.64864 31.8166 1.6028 29.8611C0.556954 27.9055 0 25.9002 0 20.9448V15.0552C0 10.0998 0.556954 8.09448 1.6028 6.13893C2.64864 4.18337 4.18337 2.64864 6.13892 1.6028C8.09448 0.556954 10.0998 0 15.0552 0Z" fill="#366F62"/>
<path d="M9.69141 17.3076C9.69141 12.3371 13.7208 8.30762 18.6914 8.30762V8.30762C23.662 8.30762 27.6914 12.3371 27.6914 17.3076V17.3076C27.6914 22.2782 23.662 26.3076 18.6914 26.3076H9.69141V17.3076Z" fill="white"/>
</svg>
