<svg width="121" height="36" viewBox="0 0 121 36" fill="none" xmlns="http://www.w3.org/2000/svg">
<path fill-rule="evenodd" clip-rule="evenodd" d="M11.4515 5H15.6685C19.2166 5 20.6525 5.40224 22.0526 6.15758C23.4528 6.91291 24.5517 8.02132 25.3006 9.43367C26.0494 10.846 26.4482 12.2943 26.4482 15.8732V20.1268C26.4482 23.7057 26.0494 25.154 25.3006 26.5663C24.5517 27.9787 23.4528 29.0871 22.0526 29.8424C20.6525 30.5978 19.2166 31 15.6685 31H11.4515C7.90343 31 6.46759 30.5978 5.0674 29.8424C3.6672 29.0871 2.56832 27.9787 1.81949 26.5663C1.07066 25.154 0.671875 23.7057 0.671875 20.1268V15.8732C0.671875 12.2943 1.07066 10.846 1.81949 9.43367C2.56832 8.02132 3.6672 6.91291 5.0674 6.15758C6.46759 5.40224 7.90343 5 11.4515 5ZM13.56 24.5C17.1172 24.5 20.0041 21.588 20.0041 18C20.0041 14.412 17.1172 11.5 13.56 11.5C10.0029 11.5 7.11595 14.412 7.11595 18V24.5H13.56Z" fill="white"/>
<path d="M38.53 19.6553V23.4167H35.9589V12.6938H40.1239C41.3869 12.6938 42.3492 13.0123 43.0108 13.6493C43.6724 14.2762 44.0032 15.1256 44.0032 16.1973C44.0032 16.8647 43.8529 17.4612 43.5521 17.987C43.2614 18.5027 42.8254 18.9122 42.244 19.2155C41.6626 19.5087 40.9559 19.6553 40.1239 19.6553H38.53ZM39.8382 17.5775C40.8707 17.5775 41.3869 17.1174 41.3869 16.1973C41.3869 15.257 40.8707 14.7868 39.8382 14.7868H38.53V17.5775H39.8382Z" fill="white"/>
<path d="M50.3205 12.527C51.3229 12.527 52.2301 12.7646 53.0421 13.2398C53.864 13.7049 54.5106 14.3571 54.9817 15.1963C55.4529 16.0254 55.6884 16.9658 55.6884 18.0173C55.6884 19.0689 55.4479 20.0143 54.9667 20.8535C54.4956 21.6927 53.849 22.3499 53.027 22.8252C52.2151 23.2903 51.3129 23.5228 50.3205 23.5228C49.3281 23.5228 48.4209 23.2903 47.599 22.8252C46.787 22.3499 46.1405 21.6927 45.6593 20.8535C45.1882 20.0143 44.9526 19.0689 44.9526 18.0173C44.9526 16.9658 45.1882 16.0254 45.6593 15.1963C46.1405 14.3571 46.787 13.7049 47.599 13.2398C48.4209 12.7646 49.3281 12.527 50.3205 12.527ZM50.3205 14.9385C49.4785 14.9385 48.8069 15.2166 48.3057 15.7727C47.8145 16.3187 47.5689 17.0669 47.5689 18.0173C47.5689 18.9577 47.8145 19.7059 48.3057 20.262C48.8069 20.8181 49.4785 21.0962 50.3205 21.0962C51.1525 21.0962 51.8191 20.8181 52.3203 20.262C52.8215 19.7059 53.0721 18.9577 53.0721 18.0173C53.0721 17.077 52.8215 16.3288 52.3203 15.7727C51.8292 15.2166 51.1625 14.9385 50.3205 14.9385Z" fill="white"/>
<path d="M69.0866 12.7697V23.4167H66.5154V16.7585L64.2299 23.4167H62.0046L59.704 16.7433V23.4167H57.1329V12.7697H60.2754L63.1473 20.1862L65.9591 12.7697H69.0866Z" fill="white"/>
<path d="M78.5005 20.3985C78.5005 20.9647 78.3552 21.4854 78.0645 21.9607C77.7838 22.4359 77.3628 22.8151 76.8015 23.0982C76.2501 23.3813 75.5785 23.5228 74.7866 23.5228C73.5937 23.5228 72.6114 23.2296 71.8395 22.6432C71.0677 22.0567 70.6466 21.2377 70.5765 20.1862H73.3131C73.3532 20.5906 73.4935 20.9091 73.7341 21.1417C73.9847 21.3742 74.3004 21.4905 74.6814 21.4905C75.0122 21.4905 75.2728 21.3995 75.4632 21.2175C75.6537 21.0355 75.7489 20.7928 75.7489 20.4895C75.7489 20.2165 75.6587 19.989 75.4783 19.807C75.3079 19.625 75.0923 19.4784 74.8317 19.3672C74.5711 19.2458 74.2102 19.1043 73.7491 18.9425C73.0775 18.7099 72.5262 18.4875 72.0951 18.2752C71.6741 18.0527 71.3082 17.7292 70.9975 17.3045C70.6968 16.8697 70.5464 16.3086 70.5464 15.621C70.5464 14.984 70.7068 14.4329 71.0276 13.9678C71.3483 13.5027 71.7894 13.1488 72.3507 12.9062C72.9221 12.6534 73.5737 12.527 74.3054 12.527C75.4883 12.527 76.4255 12.8101 77.1172 13.3763C77.8189 13.9426 78.2148 14.7211 78.3051 15.712H75.5234C75.4733 15.3581 75.3429 15.0801 75.1324 14.8778C74.932 14.6655 74.6563 14.5593 74.3054 14.5593C74.0047 14.5593 73.7591 14.6402 73.5687 14.802C73.3882 14.9638 73.298 15.2014 73.298 15.5148C73.298 15.7676 73.3782 15.985 73.5386 16.167C73.709 16.3389 73.9195 16.4804 74.1701 16.5917C74.4207 16.7029 74.7816 16.8444 75.2527 17.0163C75.9344 17.2489 76.4907 17.4814 76.9217 17.714C77.3528 17.9364 77.7237 18.2651 78.0344 18.6998C78.3452 19.1346 78.5005 19.7008 78.5005 20.3985Z" fill="white"/>
<path d="M97.4074 18.0325C97.4074 19.0841 97.1819 20.0193 96.7308 20.8383C96.2897 21.6472 95.6482 22.2792 94.8061 22.7342C93.9741 23.1892 92.9918 23.4167 91.8591 23.4167H87.8444V12.6938H91.8591C93.0018 12.6938 93.9892 12.9163 94.8212 13.3612C95.6532 13.8061 96.2897 14.4329 96.7308 15.2418C97.1819 16.0507 97.4074 16.9809 97.4074 18.0325ZM91.6335 21.0962C92.6359 21.0962 93.4128 20.8282 93.9641 20.2923C94.5255 19.7564 94.8061 19.0032 94.8061 18.0325C94.8061 17.0618 94.5255 16.3086 93.9641 15.7727C93.4128 15.2368 92.6359 14.9688 91.6335 14.9688H90.4156V21.0962H91.6335Z" fill="white"/>
<path d="M103.729 12.5877C105.082 12.5877 106.2 12.9466 107.082 13.6645C107.974 14.3824 108.55 15.3531 108.811 16.5765H106.089C105.889 16.0811 105.578 15.6918 105.157 15.4087C104.746 15.1256 104.255 14.984 103.683 14.984C102.932 14.984 102.325 15.2621 101.864 15.8182C101.403 16.3743 101.172 17.1174 101.172 18.0477C101.172 18.9779 101.403 19.7211 101.864 20.2772C102.325 20.8232 102.932 21.0962 103.683 21.0962C104.255 21.0962 104.746 20.9546 105.157 20.6715C105.578 20.3884 105.889 20.0042 106.089 19.5188H108.811C108.55 20.7322 107.974 21.7028 107.082 22.4308C106.2 23.1487 105.082 23.5077 103.729 23.5077C102.696 23.5077 101.789 23.2802 101.007 22.8252C100.225 22.3601 99.6187 21.7129 99.1877 20.8838C98.7666 20.0547 98.5561 19.1093 98.5561 18.0477C98.5561 16.986 98.7666 16.0406 99.1877 15.2115C99.6187 14.3824 100.225 13.7403 101.007 13.2853C101.789 12.8202 102.696 12.5877 103.729 12.5877Z" fill="white"/>
<path d="M115.304 12.527C116.306 12.527 117.214 12.7646 118.025 13.2398C118.847 13.7049 119.494 14.3571 119.965 15.1963C120.436 16.0254 120.672 16.9658 120.672 18.0173C120.672 19.0689 120.431 20.0143 119.95 20.8535C119.479 21.6927 118.832 22.3499 118.01 22.8252C117.199 23.2903 116.296 23.5228 115.304 23.5228C114.312 23.5228 113.404 23.2903 112.582 22.8252C111.77 22.3499 111.124 21.6927 110.643 20.8535C110.172 20.0143 109.936 19.0689 109.936 18.0173C109.936 16.9658 110.172 16.0254 110.643 15.1963C111.124 14.3571 111.77 13.7049 112.582 13.2398C113.404 12.7646 114.312 12.527 115.304 12.527ZM115.304 14.9385C114.462 14.9385 113.79 15.2166 113.289 15.7727C112.798 16.3187 112.552 17.0669 112.552 18.0173C112.552 18.9577 112.798 19.7059 113.289 20.262C113.79 20.8181 114.462 21.0962 115.304 21.0962C116.136 21.0962 116.803 20.8181 117.304 20.262C117.805 19.7059 118.056 18.9577 118.056 18.0173C118.056 17.077 117.805 16.3288 117.304 15.7727C116.813 15.2166 116.146 14.9385 115.304 14.9385Z" fill="white"/>
</svg>
